<svg width="98" height="41" viewBox="0 0 98 41" fill="none" xmlns="http://www.w3.org/2000/svg">
<rect x="0.5" y="1.01221" width="97" height="39.1707" rx="19.5854" stroke="#222222"/>
<path d="M27.974 23.4391H31.292C34.4 23.4391 36.612 21.4371 36.612 18.6231C36.612 15.8091 34.4 13.8211 31.292 13.8211H27.974V23.4391ZM29.388 22.1511V15.1091H31.376C33.602 15.1091 35.156 16.5651 35.156 18.6231C35.156 20.6951 33.602 22.1511 31.376 22.1511H29.388ZM41.7461 22.3751C40.5001 22.3751 39.6181 21.5071 39.4361 20.3031H45.1341C45.1341 17.7131 43.8601 16.0331 41.6481 16.0331C39.6461 16.0331 38.0361 17.6291 38.0361 19.7991C38.0361 22.0251 39.7441 23.6071 41.7601 23.6071C42.7821 23.6071 44.0421 23.1731 44.6861 22.4871L43.8181 21.5911C43.3841 22.0391 42.5021 22.3751 41.7461 22.3751ZM41.7041 17.2651C42.9501 17.2651 43.6361 18.0771 43.7901 19.1971H39.4501C39.6741 18.0211 40.5841 17.2651 41.7041 17.2651ZM50.1286 22.1371C49.9746 22.2911 49.6946 22.4031 49.3866 22.4031C48.9806 22.4031 48.6446 22.0391 48.6446 21.5351V17.3771H50.3526V16.2011H48.6446V14.2131H47.2866V16.2011H46.1946V17.3771H47.2866V21.6331C47.2866 22.7951 48.0706 23.6071 49.1906 23.6071C49.7086 23.6071 50.2406 23.4111 50.6326 23.0891L50.1286 22.1371ZM55.0833 16.0331C54.2853 16.0331 53.3753 16.2431 52.3393 16.7611L52.8433 17.7831C53.4733 17.4611 54.1733 17.1811 54.8873 17.1811C56.3293 17.1811 56.7493 18.1471 56.7493 19.0571V19.2811C56.0493 19.0431 55.2793 18.8891 54.5653 18.8891C52.9693 18.8891 51.6673 19.8551 51.6673 21.2971C51.6673 22.7111 52.8013 23.6071 54.3413 23.6071C55.2233 23.6071 56.2173 23.2011 56.7493 22.4451V23.4391H58.1073V19.0571C58.1073 17.2651 57.0293 16.0331 55.0833 16.0331ZM54.6073 22.5151C53.6973 22.5151 52.9973 22.0391 52.9973 21.2551C52.9973 20.4711 53.8093 19.9251 54.7753 19.9251C55.4893 19.9251 56.1613 20.0231 56.7493 20.2051V21.1711C56.5113 22.0671 55.5033 22.5151 54.6073 22.5151ZM60.7977 14.9971C61.2457 14.9971 61.6237 14.6051 61.6237 14.1571C61.6237 13.7231 61.2457 13.3311 60.7977 13.3311C60.3217 13.3311 59.9577 13.7231 59.9577 14.1571C59.9577 14.6051 60.3217 14.9971 60.7977 14.9971ZM60.0977 23.4391H61.4837V16.2011H60.0977V23.4391ZM63.4887 23.4391H64.8607V13.6531H63.4887V23.4391ZM69.4973 23.6071C71.0793 23.6071 72.2413 22.7391 72.2413 21.3671C72.2413 19.9251 70.9673 19.5331 69.7773 19.1831C68.5593 18.8051 68.1113 18.6371 68.1113 18.0771C68.1113 17.5311 68.6713 17.2231 69.3853 17.2231C70.0153 17.2231 70.7433 17.4611 71.4433 17.8951L72.0593 16.8731C71.2753 16.3551 70.3233 16.0331 69.3853 16.0331C67.8453 16.0331 66.7393 16.9011 66.7533 18.2311C66.7533 19.4071 67.5793 19.8831 69.2453 20.3451C70.1413 20.5971 70.8833 20.8071 70.8833 21.4791C70.8833 22.0391 70.3233 22.4171 69.5113 22.4171C68.6573 22.4171 67.8313 22.0951 67.0613 21.5351L66.4033 22.5291C67.2713 23.2291 68.4333 23.6071 69.4973 23.6071Z" fill="#222222"/>
</svg>
