<svg width="106" height="30" viewBox="0 0 106 30" fill="none" xmlns="http://www.w3.org/2000/svg">
<g filter="url(#filter0_d_1_266)">
<path d="M5.03238 19.912C6.01371 19.72 6.67504 19.4427 7.01638 19.08C7.35771 18.696 7.52838 18.056 7.52838 17.16L7.56038 3.72C7.56038 3.03733 7.47504 2.57867 7.30438 2.344C7.15504 2.10933 6.84571 1.992 6.37638 1.992L5.28838 2.056L5.22438 1.928L5.44838 0.519999C5.72571 0.519999 5.93904 0.530665 6.08838 0.551998C7.36838 0.594666 8.33904 0.615999 9.00038 0.615999C9.89638 0.615999 11.0377 0.519999 12.4244 0.327999L12.2964 1.768C11.6564 1.87467 11.1977 2.00267 10.9204 2.152C10.6644 2.30133 10.483 2.55733 10.3764 2.92C10.291 3.26133 10.227 3.83733 10.1844 4.648L9.99238 9.832L15.3684 9.864C16.7124 9.864 18.291 9.75733 20.1044 9.544L20.1364 3.72C20.1364 3.03733 20.051 2.57867 19.8804 2.344C19.731 2.10933 19.4217 1.992 18.9524 1.992C18.6537 1.992 18.291 2.01333 17.8644 2.056L17.8004 1.928L18.0244 0.519999C18.259 0.541332 18.6857 0.562665 19.3044 0.584C19.923 0.605333 20.5417 0.615999 21.1604 0.615999C22.1844 0.615999 23.4644 0.519999 25.0004 0.327999L24.8724 1.768C24.083 1.87467 23.5497 2.056 23.2724 2.312C22.995 2.54667 22.8457 2.97333 22.8244 3.592C22.6964 6.00267 22.5897 8.59467 22.5044 11.368C22.419 14.12 22.3764 16.2 22.3764 17.608C22.3764 18.3973 22.4724 18.9307 22.6644 19.208C22.8564 19.464 23.2297 19.592 23.7844 19.592C24.0404 19.592 24.5204 19.56 25.2244 19.496L25.2884 19.624L25.0004 21.096C24.7017 21.096 24.467 21.0853 24.2964 21.064C22.8884 21.0213 21.811 21 21.0644 21L17.3844 21.064L17.6724 19.624C18.3764 19.6027 18.8884 19.5067 19.2084 19.336C19.5497 19.1653 19.7844 18.8453 19.9124 18.376C20.0404 17.9067 20.1044 17.1813 20.1044 16.2V11.368L15.2404 11.336C14.707 11.3573 13.9604 11.4 13.0004 11.464C12.0404 11.5067 11.0164 11.5813 9.92838 11.688L9.80038 17.416C9.80038 18.2907 9.89638 18.8773 10.0884 19.176C10.2804 19.4533 10.6537 19.592 11.2084 19.592C11.4644 19.592 11.9444 19.56 12.6484 19.496L12.7124 19.624L12.4244 21.096C12.2324 21.0747 11.8697 21.0533 11.3364 21.032C10.803 21.0107 10.259 21 9.70438 21C8.72304 21 7.66704 21.0427 6.53638 21.128C5.42704 21.2133 4.86171 21.2987 4.84038 21.384L5.03238 19.912ZM28.9974 19.912C29.7867 19.8267 30.32 19.6347 30.5974 19.336C30.8747 19.0373 31.0134 18.5253 31.0134 17.8L31.0454 7.656C31.0454 7.12267 30.9814 6.77067 30.8534 6.6C30.7254 6.408 30.4694 6.312 30.0854 6.312L29.2214 6.344L29.1574 6.216L29.3494 5C29.6054 5 30.1067 5.01067 30.8534 5.032C31.6 5.05333 32.4107 5.064 33.2854 5.064C36.848 5.064 39.4827 4.968 41.1894 4.776L41.2854 4.936C41.2427 5.17067 41.1467 5.704 40.9974 6.536C40.848 7.368 40.7414 8.264 40.6774 9.224L39.1414 9.352C39.1414 9.26667 39.152 9.128 39.1734 8.936C39.1947 8.72267 39.2054 8.50933 39.2054 8.296C39.2054 7.74133 39.12 7.35733 38.9494 7.144C38.8 6.90933 38.4694 6.76 37.9574 6.696C37.4667 6.61067 36.6027 6.568 35.3654 6.568C34.7894 6.568 34.3947 6.58933 34.1814 6.632C33.968 6.65333 33.8294 6.728 33.7654 6.856C33.7014 6.96267 33.6587 7.176 33.6374 7.496L33.4454 12.04L36.0694 12.072C36.4534 12.072 37.0187 12.04 37.7654 11.976C38.512 11.8907 39.0027 11.8373 39.2374 11.816L39.3654 11.976L38.9814 13.64C38.7467 13.64 38.2774 13.6293 37.5734 13.608C36.8907 13.5867 36.1654 13.576 35.3974 13.576C34.8 13.576 34.128 13.6293 33.3814 13.736C33.3174 15.3573 33.2854 16.8187 33.2854 18.12C33.2854 18.6107 33.3174 18.952 33.3814 19.144C33.4667 19.336 33.6374 19.464 33.8934 19.528C34.1707 19.592 34.6187 19.624 35.2374 19.624C36.624 19.624 37.616 19.56 38.2134 19.432C38.8107 19.304 39.2267 19.048 39.4614 18.664C39.7174 18.2587 39.92 17.576 40.0694 16.616L41.4774 16.488L41.6054 16.648C41.5414 16.8827 41.424 17.4373 41.2534 18.312C41.104 19.1653 40.9867 20.0613 40.9014 21L40.7094 21.16C40.1334 21.1387 38.9387 21.1067 37.1254 21.064C35.312 21.0213 33.84 21 32.7094 21C31.8347 21 31.024 21.032 30.2774 21.096C29.5307 21.1813 29.0507 21.2347 28.8374 21.256L28.9974 19.912ZM45.5034 19.912C46.186 19.8053 46.6447 19.6133 46.8794 19.336C47.1354 19.0373 47.2634 18.5253 47.2634 17.8L47.2954 7.656C47.2954 7.12267 47.2314 6.77067 47.1034 6.6C46.9754 6.408 46.7194 6.312 46.3354 6.312L45.4714 6.344L45.3754 6.216L45.5674 5C45.674 5 45.994 5.01067 46.5274 5.032C47.0607 5.05333 47.7754 5.064 48.6714 5.064C49.1407 5.064 49.7167 5.032 50.3994 4.968C51.1034 4.904 51.562 4.86133 51.7754 4.84L51.6474 6.184C51.0714 6.248 50.666 6.35467 50.4314 6.504C50.1967 6.632 50.058 6.80267 50.0154 7.016C49.9727 7.22933 49.9194 7.66667 49.8554 8.328C49.642 11.1867 49.5354 14.3547 49.5354 17.832C49.5354 18.3653 49.578 18.76 49.6634 19.016C49.77 19.2507 49.962 19.4107 50.2394 19.496C50.538 19.5813 50.9967 19.624 51.6154 19.624C52.6394 19.624 53.386 19.5387 53.8554 19.368C54.346 19.1973 54.7087 18.8667 54.9434 18.376C55.1994 17.864 55.4234 17.064 55.6154 15.976L57.0234 15.816L57.1194 16.008C57.0767 16.2853 56.97 16.9253 56.7994 17.928C56.65 18.9093 56.5114 19.944 56.3834 21.032L56.2234 21.224C55.7327 21.2027 54.6874 21.16 53.0874 21.096C51.5087 21.032 50.1754 21 49.0874 21C48.234 21 47.434 21.032 46.6874 21.096C45.962 21.1813 45.5034 21.2347 45.3114 21.256L45.5034 19.912ZM59.0346 19.912C59.7173 19.8053 60.176 19.6133 60.4106 19.336C60.6666 19.0373 60.7946 18.5253 60.7946 17.8L60.8266 7.656C60.8266 7.12267 60.7626 6.77067 60.6346 6.6C60.5066 6.408 60.2506 6.312 59.8666 6.312L59.0026 6.344L58.9066 6.216L59.0986 5C59.2053 5 59.5253 5.01067 60.0586 5.032C60.592 5.05333 61.3066 5.064 62.2026 5.064C62.672 5.064 63.248 5.032 63.9306 4.968C64.6346 4.904 65.0933 4.86133 65.3066 4.84L65.1786 6.184C64.6026 6.248 64.1973 6.35467 63.9626 6.504C63.728 6.632 63.5893 6.80267 63.5466 7.016C63.504 7.22933 63.4506 7.66667 63.3866 8.328C63.1733 11.1867 63.0666 14.3547 63.0666 17.832C63.0666 18.3653 63.1093 18.76 63.1946 19.016C63.3013 19.2507 63.4933 19.4107 63.7706 19.496C64.0693 19.5813 64.528 19.624 65.1466 19.624C66.1706 19.624 66.9173 19.5387 67.3866 19.368C67.8773 19.1973 68.24 18.8667 68.4746 18.376C68.7306 17.864 68.9546 17.064 69.1466 15.976L70.5546 15.816L70.6506 16.008C70.608 16.2853 70.5013 16.9253 70.3306 17.928C70.1813 18.9093 70.0426 19.944 69.9146 21.032L69.7546 21.224C69.264 21.2027 68.2186 21.16 66.6186 21.096C65.04 21.032 63.7066 21 62.6186 21C61.7653 21 60.9653 21.032 60.2186 21.096C59.4933 21.1813 59.0346 21.2347 58.8426 21.256L59.0346 19.912ZM79.7189 21.288C78.2682 21.288 76.9775 20.968 75.8469 20.328C74.7375 19.688 73.8735 18.7813 73.2549 17.608C72.6575 16.4347 72.3589 15.08 72.3589 13.544C72.3589 11.88 72.7322 10.3867 73.4789 9.064C74.2469 7.72 75.2815 6.67467 76.5829 5.928C77.9055 5.16 79.3775 4.776 80.9989 4.776C82.4709 4.776 83.7722 5.096 84.9029 5.736C86.0335 6.376 86.9082 7.28267 87.5269 8.456C88.1455 9.608 88.4549 10.952 88.4549 12.488C88.4549 14.152 88.0709 15.656 87.3029 17C86.5562 18.3227 85.5109 19.368 84.1669 20.136C82.8442 20.904 81.3615 21.288 79.7189 21.288ZM80.4869 19.752C82.0442 19.752 83.3029 19.1973 84.2629 18.088C85.2229 16.9573 85.7029 15.464 85.7029 13.608C85.7029 12.2 85.4682 10.9627 84.9989 9.896C84.5509 8.82933 83.9002 8.008 83.0469 7.432C82.2149 6.856 81.2442 6.568 80.1349 6.568C78.6202 6.568 77.3935 7.12267 76.4549 8.232C75.5375 9.34133 75.0789 10.824 75.0789 12.68C75.0789 14.088 75.3029 15.3253 75.7509 16.392C76.1989 17.4587 76.8282 18.2907 77.6389 18.888C78.4709 19.464 79.4202 19.752 80.4869 19.752ZM99.3094 15.56L98.9894 5.544L99.2134 5.224L101.517 4.744L101.805 5.096L100.493 15.624L99.6614 15.816L99.3094 15.56ZM99.6934 21.384C99.1174 21.384 98.6694 21.2133 98.3494 20.872C98.0507 20.5093 97.9014 20.072 97.9014 19.56C97.9014 19.0053 98.0827 18.536 98.4454 18.152C98.808 17.768 99.288 17.576 99.8854 17.576C100.461 17.576 100.909 17.7573 101.229 18.12C101.549 18.4613 101.709 18.888 101.709 19.4C101.709 19.9547 101.517 20.424 101.133 20.808C100.771 21.192 100.291 21.384 99.6934 21.384Z" fill="#803D3B"/>
</g>
<defs>
<filter id="filter0_d_1_266" x="0.840393" y="0.328003" width="104.965" height="29.056" filterUnits="userSpaceOnUse" color-interpolation-filters="sRGB">
<feFlood flood-opacity="0" result="BackgroundImageFix"/>
<feColorMatrix in="SourceAlpha" type="matrix" values="0 0 0 0 0 0 0 0 0 0 0 0 0 0 0 0 0 0 127 0" result="hardAlpha"/>
<feOffset dy="4"/>
<feGaussianBlur stdDeviation="2"/>
<feComposite in2="hardAlpha" operator="out"/>
<feColorMatrix type="matrix" values="0 0 0 0 0 0 0 0 0 0 0 0 0 0 0 0 0 0 0.25 0"/>
<feBlend mode="normal" in2="BackgroundImageFix" result="effect1_dropShadow_1_266"/>
<feBlend mode="normal" in="SourceGraphic" in2="effect1_dropShadow_1_266" result="shape"/>
</filter>
</defs>
</svg>
