<svg width="25" height="24" viewBox="0 0 25 24" fill="none" xmlns="http://www.w3.org/2000/svg">
<g clip-path="url(#clip0_22_287)">
<path d="M23.8999 10.392C23.8992 10.3914 23.8986 10.3907 23.8981 10.3902L14.108 0.600404C13.6907 0.182923 13.1359 -0.046875 12.5457 -0.046875C11.9556 -0.046875 11.4007 0.182923 10.9833 0.600404L1.19827 10.3852C1.19497 10.3885 1.19149 10.392 1.18838 10.3953C0.331445 11.2572 0.33291 12.6555 1.19259 13.5152C1.58535 13.9082 2.10391 14.1356 2.65854 14.1596C2.68124 14.1618 2.70395 14.1629 2.72684 14.1629H3.11685V21.3674C3.11685 22.7932 4.27701 23.9532 5.70285 23.9532H9.53306C9.92143 23.9532 10.2362 23.6382 10.2362 23.25V17.6016C10.2362 16.951 10.7655 16.4218 11.4161 16.4218H13.6753C14.3259 16.4218 14.855 16.951 14.855 17.6016V23.25C14.855 23.6382 15.1698 23.9532 15.5582 23.9532H19.3884C20.8144 23.9532 21.9744 22.7932 21.9744 21.3674V14.1629H22.3362C22.9262 14.1629 23.481 13.9331 23.8986 13.5154C24.7592 12.6544 24.7596 11.2535 23.8999 10.392ZM22.9042 12.5211C22.7524 12.6729 22.5506 12.7566 22.3362 12.7566H21.2712C20.8829 12.7566 20.5681 13.0714 20.5681 13.4597V21.3674C20.5681 22.0177 20.0389 22.5469 19.3884 22.5469H16.2613V17.6016C16.2613 16.1758 15.1013 15.0156 13.6753 15.0156H11.4161C9.99009 15.0156 8.82994 16.1758 8.82994 17.6016V22.5469H5.70285C5.05246 22.5469 4.5231 22.0177 4.5231 21.3674V13.4597C4.5231 13.0714 4.20834 12.7566 3.81998 12.7566H2.77334C2.76236 12.7559 2.75155 12.7553 2.74039 12.7552C2.53091 12.7515 2.33444 12.6684 2.18722 12.521C1.87411 12.2078 1.87411 11.6983 2.18722 11.385C2.18741 11.385 2.18741 11.3848 2.18759 11.3846L2.18814 11.3841L11.9779 1.59467C12.1295 1.44287 12.3311 1.35938 12.5457 1.35938C12.7601 1.35938 12.9617 1.44287 13.1135 1.59467L22.9011 11.382C22.9025 11.3835 22.9042 11.385 22.9056 11.3864C23.2171 11.7001 23.2166 12.2086 22.9042 12.5211Z" fill="#808080"/>
</g>
<defs>
<clipPath id="clip0_22_287">
<rect width="24" height="24" fill="white" transform="translate(0.5)"/>
</clipPath>
</defs>
</svg>
