<svg width="101" height="5" viewBox="0 0 101 5" fill="none" xmlns="http://www.w3.org/2000/svg">
<path d="M2.856 4.736C2.66 4.736 2.506 4.596 2.506 4.428C2.506 3.84 2.66 3.266 2.73 2.678C2.254 3.028 1.834 3.448 1.33 3.742C1.19 3.826 0.98 3.756 0.882 3.588C0.784 3.42 0.84 3.224 0.98 3.14C1.484 2.846 2.058 2.692 2.604 2.454C2.058 2.216 1.484 2.062 0.98 1.768C0.84 1.684 0.784 1.488 0.882 1.32C0.98 1.152 1.19 1.082 1.33 1.166C1.834 1.46 2.254 1.88 2.73 2.23C2.66 1.642 2.506 1.068 2.506 0.48C2.506 0.312 2.66 0.172 2.856 0.172C3.052 0.172 3.206 0.312 3.206 0.48C3.206 1.068 3.052 1.642 2.982 2.23C3.458 1.88 3.878 1.46 4.382 1.166C4.522 1.082 4.732 1.152 4.83 1.32C4.928 1.488 4.872 1.684 4.732 1.768C4.228 2.062 3.654 2.216 3.108 2.454C3.654 2.692 4.228 2.846 4.732 3.14C4.872 3.224 4.928 3.42 4.83 3.588C4.732 3.756 4.522 3.826 4.382 3.742C3.878 3.448 3.458 3.028 2.982 2.678C3.052 3.266 3.206 3.84 3.206 4.428C3.206 4.596 3.052 4.736 2.856 4.736ZM8.43452 4.736C8.23852 4.736 8.08452 4.596 8.08452 4.428C8.08452 3.84 8.23852 3.266 8.30852 2.678C7.83252 3.028 7.41252 3.448 6.90852 3.742C6.76852 3.826 6.55852 3.756 6.46052 3.588C6.36252 3.42 6.41852 3.224 6.55852 3.14C7.06252 2.846 7.63652 2.692 8.18252 2.454C7.63652 2.216 7.06252 2.062 6.55852 1.768C6.41852 1.684 6.36252 1.488 6.46052 1.32C6.55852 1.152 6.76852 1.082 6.90852 1.166C7.41252 1.46 7.83252 1.88 8.30852 2.23C8.23852 1.642 8.08452 1.068 8.08452 0.48C8.08452 0.312 8.23852 0.172 8.43452 0.172C8.63052 0.172 8.78452 0.312 8.78452 0.48C8.78452 1.068 8.63052 1.642 8.56052 2.23C9.03652 1.88 9.45652 1.46 9.96052 1.166C10.1005 1.082 10.3105 1.152 10.4085 1.32C10.5065 1.488 10.4505 1.684 10.3105 1.768C9.80652 2.062 9.23252 2.216 8.68652 2.454C9.23252 2.692 9.80652 2.846 10.3105 3.14C10.4505 3.224 10.5065 3.42 10.4085 3.588C10.3105 3.756 10.1005 3.826 9.96052 3.742C9.45652 3.448 9.03652 3.028 8.56052 2.678C8.63052 3.266 8.78452 3.84 8.78452 4.428C8.78452 4.596 8.63052 4.736 8.43452 4.736ZM14.013 4.736C13.817 4.736 13.663 4.596 13.663 4.428C13.663 3.84 13.817 3.266 13.887 2.678C13.411 3.028 12.991 3.448 12.487 3.742C12.347 3.826 12.137 3.756 12.039 3.588C11.941 3.42 11.997 3.224 12.137 3.14C12.641 2.846 13.215 2.692 13.761 2.454C13.215 2.216 12.641 2.062 12.137 1.768C11.997 1.684 11.941 1.488 12.039 1.32C12.137 1.152 12.347 1.082 12.487 1.166C12.991 1.46 13.411 1.88 13.887 2.23C13.817 1.642 13.663 1.068 13.663 0.48C13.663 0.312 13.817 0.172 14.013 0.172C14.209 0.172 14.363 0.312 14.363 0.48C14.363 1.068 14.209 1.642 14.139 2.23C14.615 1.88 15.035 1.46 15.539 1.166C15.679 1.082 15.889 1.152 15.987 1.32C16.085 1.488 16.029 1.684 15.889 1.768C15.385 2.062 14.811 2.216 14.265 2.454C14.811 2.692 15.385 2.846 15.889 3.14C16.029 3.224 16.085 3.42 15.987 3.588C15.889 3.756 15.679 3.826 15.539 3.742C15.035 3.448 14.615 3.028 14.139 2.678C14.209 3.266 14.363 3.84 14.363 4.428C14.363 4.596 14.209 4.736 14.013 4.736ZM19.5915 4.736C19.3955 4.736 19.2415 4.596 19.2415 4.428C19.2415 3.84 19.3955 3.266 19.4655 2.678C18.9895 3.028 18.5695 3.448 18.0655 3.742C17.9255 3.826 17.7155 3.756 17.6175 3.588C17.5195 3.42 17.5755 3.224 17.7155 3.14C18.2195 2.846 18.7935 2.692 19.3395 2.454C18.7935 2.216 18.2195 2.062 17.7155 1.768C17.5755 1.684 17.5195 1.488 17.6175 1.32C17.7155 1.152 17.9255 1.082 18.0655 1.166C18.5695 1.46 18.9895 1.88 19.4655 2.23C19.3955 1.642 19.2415 1.068 19.2415 0.48C19.2415 0.312 19.3955 0.172 19.5915 0.172C19.7875 0.172 19.9415 0.312 19.9415 0.48C19.9415 1.068 19.7875 1.642 19.7175 2.23C20.1935 1.88 20.6135 1.46 21.1175 1.166C21.2575 1.082 21.4675 1.152 21.5655 1.32C21.6635 1.488 21.6075 1.684 21.4675 1.768C20.9635 2.062 20.3895 2.216 19.8435 2.454C20.3895 2.692 20.9635 2.846 21.4675 3.14C21.6075 3.224 21.6635 3.42 21.5655 3.588C21.4675 3.756 21.2575 3.826 21.1175 3.742C20.6135 3.448 20.1935 3.028 19.7175 2.678C19.7875 3.266 19.9415 3.84 19.9415 4.428C19.9415 4.596 19.7875 4.736 19.5915 4.736ZM29.0806 4.736C28.8846 4.736 28.7306 4.596 28.7306 4.428C28.7306 3.84 28.8846 3.266 28.9546 2.678C28.4786 3.028 28.0586 3.448 27.5546 3.742C27.4146 3.826 27.2046 3.756 27.1066 3.588C27.0086 3.42 27.0646 3.224 27.2046 3.14C27.7086 2.846 28.2826 2.692 28.8286 2.454C28.2826 2.216 27.7086 2.062 27.2046 1.768C27.0646 1.684 27.0086 1.488 27.1066 1.32C27.2046 1.152 27.4146 1.082 27.5546 1.166C28.0586 1.46 28.4786 1.88 28.9546 2.23C28.8846 1.642 28.7306 1.068 28.7306 0.48C28.7306 0.312 28.8846 0.172 29.0806 0.172C29.2766 0.172 29.4306 0.312 29.4306 0.48C29.4306 1.068 29.2766 1.642 29.2066 2.23C29.6826 1.88 30.1026 1.46 30.6066 1.166C30.7466 1.082 30.9566 1.152 31.0546 1.32C31.1526 1.488 31.0966 1.684 30.9566 1.768C30.4526 2.062 29.8786 2.216 29.3326 2.454C29.8786 2.692 30.4526 2.846 30.9566 3.14C31.0966 3.224 31.1526 3.42 31.0546 3.588C30.9566 3.756 30.7466 3.826 30.6066 3.742C30.1026 3.448 29.6826 3.028 29.2066 2.678C29.2766 3.266 29.4306 3.84 29.4306 4.428C29.4306 4.596 29.2766 4.736 29.0806 4.736ZM34.6591 4.736C34.4631 4.736 34.3091 4.596 34.3091 4.428C34.3091 3.84 34.4631 3.266 34.5331 2.678C34.0571 3.028 33.6371 3.448 33.1331 3.742C32.9931 3.826 32.7831 3.756 32.6851 3.588C32.5871 3.42 32.6431 3.224 32.7831 3.14C33.2871 2.846 33.8611 2.692 34.4071 2.454C33.8611 2.216 33.2871 2.062 32.7831 1.768C32.6431 1.684 32.5871 1.488 32.6851 1.32C32.7831 1.152 32.9931 1.082 33.1331 1.166C33.6371 1.46 34.0571 1.88 34.5331 2.23C34.4631 1.642 34.3091 1.068 34.3091 0.48C34.3091 0.312 34.4631 0.172 34.6591 0.172C34.8551 0.172 35.0091 0.312 35.0091 0.48C35.0091 1.068 34.8551 1.642 34.7851 2.23C35.2611 1.88 35.6811 1.46 36.1851 1.166C36.3251 1.082 36.5351 1.152 36.6331 1.32C36.7311 1.488 36.6751 1.684 36.5351 1.768C36.0311 2.062 35.4571 2.216 34.9111 2.454C35.4571 2.692 36.0311 2.846 36.5351 3.14C36.6751 3.224 36.7311 3.42 36.6331 3.588C36.5351 3.756 36.3251 3.826 36.1851 3.742C35.6811 3.448 35.2611 3.028 34.7851 2.678C34.8551 3.266 35.0091 3.84 35.0091 4.428C35.0091 4.596 34.8551 4.736 34.6591 4.736ZM40.2376 4.736C40.0416 4.736 39.8876 4.596 39.8876 4.428C39.8876 3.84 40.0416 3.266 40.1116 2.678C39.6356 3.028 39.2156 3.448 38.7116 3.742C38.5716 3.826 38.3616 3.756 38.2636 3.588C38.1656 3.42 38.2216 3.224 38.3616 3.14C38.8656 2.846 39.4396 2.692 39.9856 2.454C39.4396 2.216 38.8656 2.062 38.3616 1.768C38.2216 1.684 38.1656 1.488 38.2636 1.32C38.3616 1.152 38.5716 1.082 38.7116 1.166C39.2156 1.46 39.6356 1.88 40.1116 2.23C40.0416 1.642 39.8876 1.068 39.8876 0.48C39.8876 0.312 40.0416 0.172 40.2376 0.172C40.4336 0.172 40.5876 0.312 40.5876 0.48C40.5876 1.068 40.4336 1.642 40.3636 2.23C40.8396 1.88 41.2596 1.46 41.7636 1.166C41.9036 1.082 42.1136 1.152 42.2116 1.32C42.3096 1.488 42.2536 1.684 42.1136 1.768C41.6096 2.062 41.0356 2.216 40.4896 2.454C41.0356 2.692 41.6096 2.846 42.1136 3.14C42.2536 3.224 42.3096 3.42 42.2116 3.588C42.1136 3.756 41.9036 3.826 41.7636 3.742C41.2596 3.448 40.8396 3.028 40.3636 2.678C40.4336 3.266 40.5876 3.84 40.5876 4.428C40.5876 4.596 40.4336 4.736 40.2376 4.736ZM45.8162 4.736C45.6202 4.736 45.4662 4.596 45.4662 4.428C45.4662 3.84 45.6202 3.266 45.6902 2.678C45.2142 3.028 44.7942 3.448 44.2902 3.742C44.1502 3.826 43.9402 3.756 43.8422 3.588C43.7442 3.42 43.8002 3.224 43.9402 3.14C44.4442 2.846 45.0182 2.692 45.5642 2.454C45.0182 2.216 44.4442 2.062 43.9402 1.768C43.8002 1.684 43.7442 1.488 43.8422 1.32C43.9402 1.152 44.1502 1.082 44.2902 1.166C44.7942 1.46 45.2142 1.88 45.6902 2.23C45.6202 1.642 45.4662 1.068 45.4662 0.48C45.4662 0.312 45.6202 0.172 45.8162 0.172C46.0122 0.172 46.1662 0.312 46.1662 0.48C46.1662 1.068 46.0122 1.642 45.9422 2.23C46.4182 1.88 46.8382 1.46 47.3422 1.166C47.4822 1.082 47.6922 1.152 47.7902 1.32C47.8882 1.488 47.8322 1.684 47.6922 1.768C47.1882 2.062 46.6142 2.216 46.0682 2.454C46.6142 2.692 47.1882 2.846 47.6922 3.14C47.8322 3.224 47.8882 3.42 47.7902 3.588C47.6922 3.756 47.4822 3.826 47.3422 3.742C46.8382 3.448 46.4182 3.028 45.9422 2.678C46.0122 3.266 46.1662 3.84 46.1662 4.428C46.1662 4.596 46.0122 4.736 45.8162 4.736ZM55.3052 4.736C55.1092 4.736 54.9552 4.596 54.9552 4.428C54.9552 3.84 55.1092 3.266 55.1792 2.678C54.7032 3.028 54.2832 3.448 53.7792 3.742C53.6392 3.826 53.4292 3.756 53.3312 3.588C53.2332 3.42 53.2892 3.224 53.4292 3.14C53.9332 2.846 54.5072 2.692 55.0532 2.454C54.5072 2.216 53.9332 2.062 53.4292 1.768C53.2892 1.684 53.2332 1.488 53.3312 1.32C53.4292 1.152 53.6392 1.082 53.7792 1.166C54.2832 1.46 54.7032 1.88 55.1792 2.23C55.1092 1.642 54.9552 1.068 54.9552 0.48C54.9552 0.312 55.1092 0.172 55.3052 0.172C55.5012 0.172 55.6552 0.312 55.6552 0.48C55.6552 1.068 55.5012 1.642 55.4312 2.23C55.9072 1.88 56.3272 1.46 56.8312 1.166C56.9712 1.082 57.1812 1.152 57.2792 1.32C57.3772 1.488 57.3212 1.684 57.1812 1.768C56.6772 2.062 56.1032 2.216 55.5572 2.454C56.1032 2.692 56.6772 2.846 57.1812 3.14C57.3212 3.224 57.3772 3.42 57.2792 3.588C57.1812 3.756 56.9712 3.826 56.8312 3.742C56.3272 3.448 55.9072 3.028 55.4312 2.678C55.5012 3.266 55.6552 3.84 55.6552 4.428C55.6552 4.596 55.5012 4.736 55.3052 4.736ZM60.8837 4.736C60.6877 4.736 60.5337 4.596 60.5337 4.428C60.5337 3.84 60.6877 3.266 60.7577 2.678C60.2817 3.028 59.8617 3.448 59.3577 3.742C59.2177 3.826 59.0077 3.756 58.9097 3.588C58.8117 3.42 58.8677 3.224 59.0077 3.14C59.5117 2.846 60.0857 2.692 60.6317 2.454C60.0857 2.216 59.5117 2.062 59.0077 1.768C58.8677 1.684 58.8117 1.488 58.9097 1.32C59.0077 1.152 59.2177 1.082 59.3577 1.166C59.8617 1.46 60.2817 1.88 60.7577 2.23C60.6877 1.642 60.5337 1.068 60.5337 0.48C60.5337 0.312 60.6877 0.172 60.8837 0.172C61.0797 0.172 61.2337 0.312 61.2337 0.48C61.2337 1.068 61.0797 1.642 61.0097 2.23C61.4857 1.88 61.9057 1.46 62.4097 1.166C62.5497 1.082 62.7597 1.152 62.8577 1.32C62.9557 1.488 62.8997 1.684 62.7597 1.768C62.2557 2.062 61.6817 2.216 61.1357 2.454C61.6817 2.692 62.2557 2.846 62.7597 3.14C62.8997 3.224 62.9557 3.42 62.8577 3.588C62.7597 3.756 62.5497 3.826 62.4097 3.742C61.9057 3.448 61.4857 3.028 61.0097 2.678C61.0797 3.266 61.2337 3.84 61.2337 4.428C61.2337 4.596 61.0797 4.736 60.8837 4.736ZM66.4623 4.736C66.2663 4.736 66.1123 4.596 66.1123 4.428C66.1123 3.84 66.2663 3.266 66.3363 2.678C65.8603 3.028 65.4403 3.448 64.9363 3.742C64.7963 3.826 64.5863 3.756 64.4883 3.588C64.3903 3.42 64.4463 3.224 64.5863 3.14C65.0903 2.846 65.6643 2.692 66.2103 2.454C65.6643 2.216 65.0903 2.062 64.5863 1.768C64.4463 1.684 64.3903 1.488 64.4883 1.32C64.5863 1.152 64.7963 1.082 64.9363 1.166C65.4403 1.46 65.8603 1.88 66.3363 2.23C66.2663 1.642 66.1123 1.068 66.1123 0.48C66.1123 0.312 66.2663 0.172 66.4623 0.172C66.6583 0.172 66.8123 0.312 66.8123 0.48C66.8123 1.068 66.6583 1.642 66.5883 2.23C67.0643 1.88 67.4843 1.46 67.9883 1.166C68.1283 1.082 68.3383 1.152 68.4363 1.32C68.5343 1.488 68.4783 1.684 68.3383 1.768C67.8343 2.062 67.2603 2.216 66.7143 2.454C67.2603 2.692 67.8343 2.846 68.3383 3.14C68.4783 3.224 68.5343 3.42 68.4363 3.588C68.3383 3.756 68.1283 3.826 67.9883 3.742C67.4843 3.448 67.0643 3.028 66.5883 2.678C66.6583 3.266 66.8123 3.84 66.8123 4.428C66.8123 4.596 66.6583 4.736 66.4623 4.736ZM72.0408 4.736C71.8448 4.736 71.6908 4.596 71.6908 4.428C71.6908 3.84 71.8448 3.266 71.9148 2.678C71.4388 3.028 71.0188 3.448 70.5148 3.742C70.3748 3.826 70.1648 3.756 70.0668 3.588C69.9688 3.42 70.0248 3.224 70.1648 3.14C70.6688 2.846 71.2428 2.692 71.7888 2.454C71.2428 2.216 70.6688 2.062 70.1648 1.768C70.0248 1.684 69.9688 1.488 70.0668 1.32C70.1648 1.152 70.3748 1.082 70.5148 1.166C71.0188 1.46 71.4388 1.88 71.9148 2.23C71.8448 1.642 71.6908 1.068 71.6908 0.48C71.6908 0.312 71.8448 0.172 72.0408 0.172C72.2368 0.172 72.3908 0.312 72.3908 0.48C72.3908 1.068 72.2368 1.642 72.1668 2.23C72.6428 1.88 73.0628 1.46 73.5668 1.166C73.7068 1.082 73.9168 1.152 74.0148 1.32C74.1128 1.488 74.0568 1.684 73.9168 1.768C73.4128 2.062 72.8388 2.216 72.2928 2.454C72.8388 2.692 73.4128 2.846 73.9168 3.14C74.0568 3.224 74.1128 3.42 74.0148 3.588C73.9168 3.756 73.7068 3.826 73.5668 3.742C73.0628 3.448 72.6428 3.028 72.1668 2.678C72.2368 3.266 72.3908 3.84 72.3908 4.428C72.3908 4.596 72.2368 4.736 72.0408 4.736ZM81.5298 4.736C81.3338 4.736 81.1798 4.596 81.1798 4.428C81.1798 3.84 81.3338 3.266 81.4038 2.678C80.9278 3.028 80.5078 3.448 80.0038 3.742C79.8638 3.826 79.6538 3.756 79.5558 3.588C79.4578 3.42 79.5138 3.224 79.6538 3.14C80.1578 2.846 80.7318 2.692 81.2778 2.454C80.7318 2.216 80.1578 2.062 79.6538 1.768C79.5138 1.684 79.4578 1.488 79.5558 1.32C79.6538 1.152 79.8638 1.082 80.0038 1.166C80.5078 1.46 80.9278 1.88 81.4038 2.23C81.3338 1.642 81.1798 1.068 81.1798 0.48C81.1798 0.312 81.3338 0.172 81.5298 0.172C81.7258 0.172 81.8798 0.312 81.8798 0.48C81.8798 1.068 81.7258 1.642 81.6558 2.23C82.1318 1.88 82.5518 1.46 83.0558 1.166C83.1958 1.082 83.4058 1.152 83.5038 1.32C83.6018 1.488 83.5458 1.684 83.4058 1.768C82.9018 2.062 82.3278 2.216 81.7818 2.454C82.3278 2.692 82.9018 2.846 83.4058 3.14C83.5458 3.224 83.6018 3.42 83.5038 3.588C83.4058 3.756 83.1958 3.826 83.0558 3.742C82.5518 3.448 82.1318 3.028 81.6558 2.678C81.7258 3.266 81.8798 3.84 81.8798 4.428C81.8798 4.596 81.7258 4.736 81.5298 4.736ZM87.1083 4.736C86.9123 4.736 86.7583 4.596 86.7583 4.428C86.7583 3.84 86.9123 3.266 86.9823 2.678C86.5063 3.028 86.0863 3.448 85.5823 3.742C85.4423 3.826 85.2323 3.756 85.1343 3.588C85.0363 3.42 85.0923 3.224 85.2323 3.14C85.7363 2.846 86.3103 2.692 86.8563 2.454C86.3103 2.216 85.7363 2.062 85.2323 1.768C85.0923 1.684 85.0363 1.488 85.1343 1.32C85.2323 1.152 85.4423 1.082 85.5823 1.166C86.0863 1.46 86.5063 1.88 86.9823 2.23C86.9123 1.642 86.7583 1.068 86.7583 0.48C86.7583 0.312 86.9123 0.172 87.1083 0.172C87.3043 0.172 87.4583 0.312 87.4583 0.48C87.4583 1.068 87.3043 1.642 87.2343 2.23C87.7103 1.88 88.1303 1.46 88.6343 1.166C88.7743 1.082 88.9843 1.152 89.0823 1.32C89.1803 1.488 89.1243 1.684 88.9843 1.768C88.4803 2.062 87.9063 2.216 87.3603 2.454C87.9063 2.692 88.4803 2.846 88.9843 3.14C89.1243 3.224 89.1803 3.42 89.0823 3.588C88.9843 3.756 88.7743 3.826 88.6343 3.742C88.1303 3.448 87.7103 3.028 87.2343 2.678C87.3043 3.266 87.4583 3.84 87.4583 4.428C87.4583 4.596 87.3043 4.736 87.1083 4.736ZM92.6869 4.736C92.4909 4.736 92.3369 4.596 92.3369 4.428C92.3369 3.84 92.4909 3.266 92.5609 2.678C92.0849 3.028 91.6649 3.448 91.1609 3.742C91.0209 3.826 90.8109 3.756 90.7129 3.588C90.6149 3.42 90.6709 3.224 90.8109 3.14C91.3149 2.846 91.8889 2.692 92.4349 2.454C91.8889 2.216 91.3149 2.062 90.8109 1.768C90.6709 1.684 90.6149 1.488 90.7129 1.32C90.8109 1.152 91.0209 1.082 91.1609 1.166C91.6649 1.46 92.0849 1.88 92.5609 2.23C92.4909 1.642 92.3369 1.068 92.3369 0.48C92.3369 0.312 92.4909 0.172 92.6869 0.172C92.8829 0.172 93.0369 0.312 93.0369 0.48C93.0369 1.068 92.8829 1.642 92.8129 2.23C93.2889 1.88 93.7089 1.46 94.2129 1.166C94.3529 1.082 94.5629 1.152 94.6609 1.32C94.7589 1.488 94.7029 1.684 94.5629 1.768C94.0589 2.062 93.4849 2.216 92.9389 2.454C93.4849 2.692 94.0589 2.846 94.5629 3.14C94.7029 3.224 94.7589 3.42 94.6609 3.588C94.5629 3.756 94.3529 3.826 94.2129 3.742C93.7089 3.448 93.2889 3.028 92.8129 2.678C92.8829 3.266 93.0369 3.84 93.0369 4.428C93.0369 4.596 92.8829 4.736 92.6869 4.736ZM98.2654 4.736C98.0694 4.736 97.9154 4.596 97.9154 4.428C97.9154 3.84 98.0694 3.266 98.1394 2.678C97.6634 3.028 97.2434 3.448 96.7394 3.742C96.5994 3.826 96.3894 3.756 96.2914 3.588C96.1934 3.42 96.2494 3.224 96.3894 3.14C96.8934 2.846 97.4674 2.692 98.0134 2.454C97.4674 2.216 96.8934 2.062 96.3894 1.768C96.2494 1.684 96.1934 1.488 96.2914 1.32C96.3894 1.152 96.5994 1.082 96.7394 1.166C97.2434 1.46 97.6634 1.88 98.1394 2.23C98.0694 1.642 97.9154 1.068 97.9154 0.48C97.9154 0.312 98.0694 0.172 98.2654 0.172C98.4614 0.172 98.6154 0.312 98.6154 0.48C98.6154 1.068 98.4614 1.642 98.3914 2.23C98.8674 1.88 99.2874 1.46 99.7914 1.166C99.9314 1.082 100.141 1.152 100.239 1.32C100.337 1.488 100.281 1.684 100.141 1.768C99.6374 2.062 99.0634 2.216 98.5174 2.454C99.0634 2.692 99.6374 2.846 100.141 3.14C100.281 3.224 100.337 3.42 100.239 3.588C100.141 3.756 99.9314 3.826 99.7914 3.742C99.2874 3.448 98.8674 3.028 98.3914 2.678C98.4614 3.266 98.6154 3.84 98.6154 4.428C98.6154 4.596 98.4614 4.736 98.2654 4.736Z" fill="#222222"/>
</svg>
