<svg width="221" height="30" viewBox="0 0 221 30" fill="none" xmlns="http://www.w3.org/2000/svg">
<rect width="100" height="30" rx="15" fill="#222222"/>
<path d="M33.9669 15.226C33.9669 14.3207 34.1069 13.5553 34.3869 12.93C34.6763 12.3047 35.0403 11.8007 35.4789 11.418C35.9269 11.0353 36.4216 10.76 36.9629 10.592C37.5136 10.4147 38.0503 10.326 38.5729 10.326C39.0956 10.326 39.6276 10.4007 40.1689 10.55C40.7196 10.69 41.2143 10.9467 41.6529 11.32C42.1009 11.684 42.4649 12.1833 42.7449 12.818C43.0343 13.4527 43.1789 14.26 43.1789 15.24C43.1789 16.1547 43.0343 16.9247 42.7449 17.55C42.4649 18.1753 42.1009 18.684 41.6529 19.076C41.2143 19.468 40.7196 19.7527 40.1689 19.93C39.6276 20.098 39.0956 20.182 38.5729 20.182C38.0503 20.182 37.5136 20.098 36.9629 19.93C36.4216 19.762 35.9269 19.4867 35.4789 19.104C35.0403 18.7213 34.6763 18.2127 34.3869 17.578C34.1069 16.9433 33.9669 16.1593 33.9669 15.226ZM41.8489 15.296C41.8489 14.036 41.5549 13.0793 40.9669 12.426C40.3883 11.7727 39.6089 11.446 38.6289 11.446C38.1343 11.446 37.6816 11.5253 37.2709 11.684C36.8696 11.8333 36.5196 12.062 36.2209 12.37C35.9316 12.678 35.7029 13.0653 35.5349 13.532C35.3763 13.9893 35.2969 14.5307 35.2969 15.156C35.2969 16.416 35.5863 17.382 36.1649 18.054C36.7529 18.726 37.5369 19.062 38.5169 19.062C39.0023 19.062 39.4503 18.9873 39.8609 18.838C40.2716 18.6793 40.6216 18.4413 40.9109 18.124C41.2096 17.8067 41.4383 17.4147 41.5969 16.948C41.7649 16.4813 41.8489 15.9307 41.8489 15.296ZM44.9116 14.092C44.9116 13.8773 44.8883 13.5413 44.8416 13.084L45.8776 12.944L45.9896 13.966H46.0036C46.1716 13.7513 46.335 13.5647 46.4936 13.406C46.6523 13.2473 46.8156 13.112 46.9836 13C47.161 12.8787 47.329 12.818 47.4876 12.818C47.7023 12.8087 48.001 12.832 48.3836 12.888L48.1316 13.966C47.8236 13.91 47.609 13.8867 47.4876 13.896C47.329 13.896 47.161 13.9707 46.9836 14.12C46.8063 14.2693 46.6523 14.428 46.5216 14.596C46.3536 14.8013 46.1903 15.0347 46.0316 15.296V20H44.9116V14.092ZM53.8054 14.008C53.4694 13.9147 53.208 13.8587 53.0214 13.84C52.8347 13.812 52.6434 13.798 52.4474 13.798C52.0554 13.798 51.7194 13.868 51.4394 14.008C51.1594 14.148 50.926 14.344 50.7394 14.596C50.562 14.8387 50.4314 15.1233 50.3474 15.45C50.2634 15.7673 50.2214 16.108 50.2214 16.472C50.2214 16.7987 50.254 17.1253 50.3194 17.452C50.394 17.7787 50.506 18.0727 50.6554 18.334C50.8047 18.5953 50.9867 18.8053 51.2014 18.964C51.416 19.1227 51.6727 19.202 51.9714 19.202C52.1767 19.202 52.3867 19.1647 52.6014 19.09C52.8254 19.0153 53.0307 18.9313 53.2174 18.838C53.404 18.7353 53.6 18.6093 53.8054 18.46V14.008ZM53.8194 19.44C53.6047 19.5893 53.3947 19.7153 53.1894 19.818C52.9934 19.9113 52.774 19.9953 52.5314 20.07C52.298 20.1447 52.0694 20.182 51.8454 20.182C50.968 20.182 50.2774 19.874 49.7734 19.258C49.2787 18.6327 49.0314 17.7227 49.0314 16.528C49.0314 15.8187 49.1434 15.226 49.3674 14.75C49.6007 14.274 49.89 13.896 50.2354 13.616C50.5807 13.3267 50.9494 13.1213 51.3414 13C51.7427 12.8787 52.1114 12.818 52.4474 12.818C52.6154 12.818 52.7927 12.832 52.9794 12.86C53.166 12.8787 53.4414 12.9347 53.8054 13.028V9.514L54.9254 9.388V18.726C54.9254 18.8567 54.9254 18.9967 54.9254 19.146C54.9347 19.286 54.944 19.426 54.9534 19.566C54.972 19.706 54.9907 19.8507 55.0094 20L53.9314 20.112L53.8194 19.44ZM62.1642 19.832C61.9496 19.8973 61.7256 19.9533 61.4922 20C61.2682 20.0467 61.0162 20.0887 60.7362 20.126C60.4656 20.1633 60.1809 20.182 59.8822 20.182C59.4156 20.182 58.9816 20.1167 58.5802 19.986C58.1789 19.8553 57.8289 19.6453 57.5302 19.356C57.2316 19.0667 56.9936 18.6933 56.8162 18.236C56.6482 17.7693 56.5642 17.2 56.5642 16.528C56.5642 15.9213 56.6482 15.3893 56.8162 14.932C56.9842 14.4653 57.2129 14.078 57.5022 13.77C57.8009 13.4527 58.1462 13.2147 58.5382 13.056C58.9396 12.8973 59.3736 12.818 59.8402 12.818C60.2976 12.818 60.6942 12.9067 61.0302 13.084C61.3662 13.2613 61.6416 13.504 61.8562 13.812C62.0802 14.1107 62.2436 14.4653 62.3462 14.876C62.4582 15.2773 62.5142 15.702 62.5142 16.15L62.3042 16.766H57.7822C57.7822 17.0553 57.8196 17.3447 57.8942 17.634C57.9689 17.9233 58.0949 18.1847 58.2722 18.418C58.4589 18.6513 58.6969 18.8427 58.9862 18.992C59.2849 19.132 59.6536 19.202 60.0922 19.202C60.3722 19.202 60.6289 19.188 60.8622 19.16C61.0956 19.1227 61.2962 19.0853 61.4642 19.048C61.6416 19.0013 61.8049 18.95 61.9542 18.894L62.1642 19.832ZM61.3522 15.87C61.3522 15.8047 61.3382 15.66 61.3102 15.436C61.2822 15.212 61.2169 14.9787 61.1142 14.736C61.0116 14.4933 60.8529 14.2787 60.6382 14.092C60.4236 13.896 60.1389 13.798 59.7842 13.798C59.3922 13.798 59.0702 13.882 58.8182 14.05C58.5662 14.2087 58.3656 14.4 58.2162 14.624C58.0669 14.848 57.9642 15.0767 57.9082 15.31C57.8522 15.5433 57.8242 15.73 57.8242 15.87H61.3522ZM64.0523 14.092C64.0523 13.8773 64.0289 13.5413 63.9823 13.084L65.0183 12.944L65.1303 13.966H65.1443C65.3123 13.7513 65.4756 13.5647 65.6343 13.406C65.7929 13.2473 65.9563 13.112 66.1243 13C66.3016 12.8787 66.4696 12.818 66.6283 12.818C66.8429 12.8087 67.1416 12.832 67.5243 12.888L67.2723 13.966C66.9643 13.91 66.7496 13.8867 66.6283 13.896C66.4696 13.896 66.3016 13.9707 66.1243 14.12C65.9469 14.2693 65.7929 14.428 65.6623 14.596C65.4943 14.8013 65.3309 15.0347 65.1723 15.296V20H64.0523V14.092Z" fill="white"/>
<path d="M141.164 10.452H143.362C144.575 10.452 145.471 10.6667 146.05 11.096C146.638 11.5253 146.932 12.2487 146.932 13.266C146.932 13.826 146.824 14.2927 146.61 14.666C146.395 15.0393 146.124 15.3427 145.798 15.576C145.48 15.8 145.135 15.9633 144.762 16.066C144.388 16.1593 144.043 16.206 143.726 16.206H142.34V20H141.164V10.452ZM142.34 15.156H143.628C143.945 15.156 144.23 15.128 144.482 15.072C144.743 15.0067 144.967 14.904 145.154 14.764C145.34 14.6147 145.485 14.4187 145.588 14.176C145.69 13.924 145.742 13.6113 145.742 13.238C145.742 12.8647 145.686 12.566 145.574 12.342C145.471 12.1087 145.312 11.9313 145.098 11.81C144.892 11.6887 144.631 11.6093 144.314 11.572C143.996 11.5253 143.628 11.502 143.208 11.502H142.34V15.156ZM148.514 14.092C148.514 13.8773 148.491 13.5413 148.444 13.084L149.48 12.944L149.592 13.966H149.606C149.774 13.7513 149.938 13.5647 150.096 13.406C150.255 13.2473 150.418 13.112 150.586 13C150.764 12.8787 150.932 12.818 151.09 12.818C151.305 12.8087 151.604 12.832 151.986 12.888L151.734 13.966C151.426 13.91 151.212 13.8867 151.09 13.896C150.932 13.896 150.764 13.9707 150.586 14.12C150.409 14.2693 150.255 14.428 150.124 14.596C149.956 14.8013 149.793 15.0347 149.634 15.296V20H148.514V14.092ZM153.81 16.514C153.81 17.4193 154.011 18.096 154.412 18.544C154.823 18.9827 155.373 19.202 156.064 19.202C156.745 19.202 157.277 18.9827 157.66 18.544C158.043 18.1053 158.234 17.4473 158.234 16.57C158.234 15.6367 158.029 14.9413 157.618 14.484C157.217 14.0267 156.666 13.798 155.966 13.798C155.266 13.798 154.729 14.0267 154.356 14.484C153.992 14.932 153.81 15.6087 153.81 16.514ZM152.62 16.5C152.62 15.7907 152.732 15.2027 152.956 14.736C153.18 14.26 153.465 13.882 153.81 13.602C154.155 13.3127 154.524 13.112 154.916 13C155.317 12.8787 155.695 12.818 156.05 12.818C156.386 12.818 156.75 12.874 157.142 12.986C157.543 13.0887 157.912 13.28 158.248 13.56C158.584 13.8307 158.864 14.1993 159.088 14.666C159.312 15.1233 159.424 15.7067 159.424 16.416C159.424 17.1533 159.307 17.7647 159.074 18.25C158.85 18.7353 158.565 19.1227 158.22 19.412C157.875 19.692 157.501 19.888 157.1 20C156.699 20.1213 156.325 20.182 155.98 20.182C155.625 20.182 155.252 20.126 154.86 20.014C154.468 19.902 154.104 19.7107 153.768 19.44C153.441 19.16 153.166 18.782 152.942 18.306C152.727 17.83 152.62 17.228 152.62 16.5ZM165.419 13.98C165.26 13.9427 165.041 13.9053 164.761 13.868C164.481 13.8213 164.196 13.798 163.907 13.798C163.487 13.798 163.142 13.882 162.871 14.05C162.61 14.218 162.404 14.4373 162.255 14.708C162.106 14.9693 162.003 15.2633 161.947 15.59C161.891 15.9073 161.863 16.22 161.863 16.528C161.863 17.004 161.924 17.4147 162.045 17.76C162.166 18.096 162.325 18.3713 162.521 18.586C162.726 18.8007 162.96 18.9593 163.221 19.062C163.482 19.1553 163.758 19.202 164.047 19.202C164.243 19.202 164.43 19.1927 164.607 19.174C164.794 19.146 164.962 19.118 165.111 19.09C165.27 19.0527 165.419 19.0107 165.559 18.964L165.783 19.902C165.587 19.958 165.405 20.0047 165.237 20.042C165.069 20.0793 164.868 20.112 164.635 20.14C164.411 20.168 164.168 20.182 163.907 20.182C163.394 20.182 162.936 20.1167 162.535 19.986C162.134 19.8553 161.793 19.6453 161.513 19.356C161.242 19.0667 161.032 18.6887 160.883 18.222C160.743 17.7553 160.673 17.186 160.673 16.514C160.673 15.8607 160.762 15.3007 160.939 14.834C161.126 14.358 161.368 13.9753 161.667 13.686C161.966 13.3873 162.306 13.168 162.689 13.028C163.081 12.888 163.487 12.818 163.907 12.818C164.131 12.818 164.346 12.832 164.551 12.86C164.766 12.8787 164.952 12.902 165.111 12.93C165.298 12.9673 165.475 13.0047 165.643 13.042L165.419 13.98ZM172.206 19.832C171.992 19.8973 171.768 19.9533 171.534 20C171.31 20.0467 171.058 20.0887 170.778 20.126C170.508 20.1633 170.223 20.182 169.924 20.182C169.458 20.182 169.024 20.1167 168.622 19.986C168.221 19.8553 167.871 19.6453 167.572 19.356C167.274 19.0667 167.036 18.6933 166.858 18.236C166.69 17.7693 166.606 17.2 166.606 16.528C166.606 15.9213 166.69 15.3893 166.858 14.932C167.026 14.4653 167.255 14.078 167.544 13.77C167.843 13.4527 168.188 13.2147 168.58 13.056C168.982 12.8973 169.416 12.818 169.882 12.818C170.34 12.818 170.736 12.9067 171.072 13.084C171.408 13.2613 171.684 13.504 171.898 13.812C172.122 14.1107 172.286 14.4653 172.388 14.876C172.5 15.2773 172.556 15.702 172.556 16.15L172.346 16.766H167.824C167.824 17.0553 167.862 17.3447 167.936 17.634C168.011 17.9233 168.137 18.1847 168.314 18.418C168.501 18.6513 168.739 18.8427 169.028 18.992C169.327 19.132 169.696 19.202 170.134 19.202C170.414 19.202 170.671 19.188 170.904 19.16C171.138 19.1227 171.338 19.0853 171.506 19.048C171.684 19.0013 171.847 18.95 171.996 18.894L172.206 19.832ZM171.394 15.87C171.394 15.8047 171.38 15.66 171.352 15.436C171.324 15.212 171.259 14.9787 171.156 14.736C171.054 14.4933 170.895 14.2787 170.68 14.092C170.466 13.896 170.181 13.798 169.826 13.798C169.434 13.798 169.112 13.882 168.86 14.05C168.608 14.2087 168.408 14.4 168.258 14.624C168.109 14.848 168.006 15.0767 167.95 15.31C167.894 15.5433 167.866 15.73 167.866 15.87H171.394ZM177.888 14.106C177.496 13.9847 177.146 13.9053 176.838 13.868C176.54 13.8213 176.264 13.798 176.012 13.798C175.686 13.798 175.41 13.8773 175.186 14.036C174.972 14.1947 174.864 14.4 174.864 14.652C174.874 14.876 174.972 15.0673 175.158 15.226C175.345 15.3847 175.56 15.5293 175.802 15.66C176.054 15.7813 176.33 15.9167 176.628 16.066C176.936 16.2153 177.221 16.3833 177.482 16.57C177.753 16.7567 177.972 16.9807 178.14 17.242C178.308 17.5033 178.397 17.816 178.406 18.18C178.397 18.572 178.308 18.8987 178.14 19.16C177.982 19.412 177.772 19.6173 177.51 19.776C177.258 19.9253 176.983 20.028 176.684 20.084C176.386 20.1493 176.106 20.182 175.844 20.182C175.508 20.182 175.158 20.1633 174.794 20.126C174.44 20.0887 174.057 20.0093 173.646 19.888L173.856 18.88C174.276 18.992 174.659 19.076 175.004 19.132C175.35 19.1787 175.634 19.202 175.858 19.202C176.026 19.202 176.19 19.1833 176.348 19.146C176.516 19.1087 176.666 19.0573 176.796 18.992C176.927 18.9173 177.03 18.824 177.104 18.712C177.188 18.6 177.23 18.474 177.23 18.334C177.221 18.0727 177.132 17.8533 176.964 17.676C176.796 17.4893 176.577 17.326 176.306 17.186C176.045 17.0367 175.76 16.892 175.452 16.752C175.154 16.6027 174.869 16.4347 174.598 16.248C174.337 16.052 174.118 15.8233 173.94 15.562C173.763 15.2913 173.674 14.96 173.674 14.568C173.674 14.288 173.744 14.0407 173.884 13.826C174.034 13.602 174.22 13.42 174.444 13.28C174.678 13.1307 174.93 13.0187 175.2 12.944C175.48 12.86 175.751 12.818 176.012 12.818C176.283 12.818 176.586 12.8413 176.922 12.888C177.258 12.9253 177.646 13 178.084 13.112L177.888 14.106ZM183.726 14.106C183.334 13.9847 182.984 13.9053 182.676 13.868C182.377 13.8213 182.102 13.798 181.85 13.798C181.523 13.798 181.248 13.8773 181.024 14.036C180.809 14.1947 180.702 14.4 180.702 14.652C180.711 14.876 180.809 15.0673 180.996 15.226C181.183 15.3847 181.397 15.5293 181.64 15.66C181.892 15.7813 182.167 15.9167 182.466 16.066C182.774 16.2153 183.059 16.3833 183.32 16.57C183.591 16.7567 183.81 16.9807 183.978 17.242C184.146 17.5033 184.235 17.816 184.244 18.18C184.235 18.572 184.146 18.8987 183.978 19.16C183.819 19.412 183.609 19.6173 183.348 19.776C183.096 19.9253 182.821 20.028 182.522 20.084C182.223 20.1493 181.943 20.182 181.682 20.182C181.346 20.182 180.996 20.1633 180.632 20.126C180.277 20.0887 179.895 20.0093 179.484 19.888L179.694 18.88C180.114 18.992 180.497 19.076 180.842 19.132C181.187 19.1787 181.472 19.202 181.696 19.202C181.864 19.202 182.027 19.1833 182.186 19.146C182.354 19.1087 182.503 19.0573 182.634 18.992C182.765 18.9173 182.867 18.824 182.942 18.712C183.026 18.6 183.068 18.474 183.068 18.334C183.059 18.0727 182.97 17.8533 182.802 17.676C182.634 17.4893 182.415 17.326 182.144 17.186C181.883 17.0367 181.598 16.892 181.29 16.752C180.991 16.6027 180.707 16.4347 180.436 16.248C180.175 16.052 179.955 15.8233 179.778 15.562C179.601 15.2913 179.512 14.96 179.512 14.568C179.512 14.288 179.582 14.0407 179.722 13.826C179.871 13.602 180.058 13.42 180.282 13.28C180.515 13.1307 180.767 13.0187 181.038 12.944C181.318 12.86 181.589 12.818 181.85 12.818C182.121 12.818 182.424 12.8413 182.76 12.888C183.096 12.9253 183.483 13 183.922 13.112L183.726 14.106ZM185.756 12.944L186.876 12.818V20H185.756V12.944ZM185.574 10.942C185.574 10.7273 185.644 10.55 185.784 10.41C185.933 10.2607 186.115 10.186 186.33 10.186C186.554 10.186 186.741 10.2607 186.89 10.41C187.049 10.55 187.128 10.7273 187.128 10.942C187.128 11.1567 187.049 11.3387 186.89 11.488C186.741 11.628 186.554 11.698 186.33 11.698C186.115 11.698 185.933 11.628 185.784 11.488C185.644 11.3387 185.574 11.1567 185.574 10.942ZM188.901 14.358C188.91 14.162 188.887 13.7373 188.831 13.084L189.867 12.944L190.021 13.84C190.301 13.6533 190.576 13.49 190.847 13.35C191.127 13.21 191.412 13.0887 191.701 12.986C191.99 12.874 192.27 12.818 192.541 12.818C192.924 12.818 193.241 12.8647 193.493 12.958C193.754 13.042 193.964 13.1867 194.123 13.392C194.282 13.5973 194.394 13.868 194.459 14.204C194.534 14.54 194.571 14.96 194.571 15.464V20H193.451V15.59C193.451 15.31 193.446 15.0627 193.437 14.848C193.428 14.624 193.386 14.4373 193.311 14.288C193.246 14.1293 193.138 14.008 192.989 13.924C192.849 13.84 192.648 13.798 192.387 13.798C192.144 13.798 191.888 13.854 191.617 13.966C191.346 14.0687 191.08 14.19 190.819 14.33C190.558 14.47 190.292 14.6333 190.021 14.82V20H188.901V14.358ZM202.059 20.672C202.059 21.0173 202.022 21.3533 201.947 21.68C201.872 22.0067 201.728 22.296 201.513 22.548C201.308 22.8093 201.014 23.0147 200.631 23.164C200.258 23.3227 199.763 23.402 199.147 23.402C198.755 23.3927 198.414 23.3693 198.125 23.332C197.836 23.2947 197.56 23.2387 197.299 23.164C197.038 23.0987 196.8 23.0193 196.585 22.926L196.879 21.946C197.243 22.1047 197.612 22.226 197.985 22.31C198.368 22.394 198.708 22.436 199.007 22.436C199.334 22.436 199.618 22.4033 199.861 22.338C200.104 22.2727 200.304 22.1607 200.463 22.002C200.631 21.8527 200.752 21.652 200.827 21.4C200.911 21.148 200.953 20.8353 200.953 20.462V19.44C200.757 19.5707 200.552 19.692 200.337 19.804C200.132 19.9067 199.908 19.9953 199.665 20.07C199.432 20.1447 199.203 20.182 198.979 20.182C198.111 20.182 197.425 19.8787 196.921 19.272C196.417 18.656 196.165 17.7413 196.165 16.528C196.165 15.828 196.272 15.2447 196.487 14.778C196.711 14.302 196.991 13.9193 197.327 13.63C197.663 13.3407 198.032 13.1353 198.433 13.014C198.834 12.8833 199.217 12.818 199.581 12.818C200.057 12.818 200.491 12.86 200.883 12.944C201.284 13.0187 201.676 13.0793 202.059 13.126V20.672ZM199.105 19.202C199.31 19.202 199.52 19.1647 199.735 19.09C199.95 19.0153 200.155 18.9267 200.351 18.824C200.556 18.7213 200.757 18.6 200.953 18.46V13.994C200.841 13.966 200.71 13.9333 200.561 13.896C200.43 13.8773 200.281 13.8587 200.113 13.84C199.945 13.812 199.768 13.798 199.581 13.798C199.189 13.798 198.853 13.868 198.573 14.008C198.293 14.148 198.06 14.3393 197.873 14.582C197.696 14.8247 197.565 15.1093 197.481 15.436C197.397 15.7627 197.355 16.108 197.355 16.472C197.355 16.7987 197.388 17.1253 197.453 17.452C197.528 17.7787 197.64 18.0727 197.789 18.334C197.938 18.5953 198.12 18.8053 198.335 18.964C198.55 19.1227 198.806 19.202 199.105 19.202Z" fill="#222222"/>
</svg>
